<svg width="51" height="178" viewBox="0 0 51 178" fill="none" xmlns="http://www.w3.org/2000/svg">
<path fill-rule="evenodd" clip-rule="evenodd" d="M12.6582 170.846C15.4584 168.251 19.8546 160.254 21.0415 157.286C25.906 145.131 24.8853 133.297 19.845 120.877C16.7314 113.202 13.2125 105.709 9.85615 98.1246C0.893712 77.87 0.194148 59.2445 13.8987 41.1007C14.4607 40.344 15.0245 39.5929 15.5884 38.84C15.3227 39.6593 15.0054 40.5848 14.8773 41.1443C14.1032 44.4992 12.0485 49.3732 12.037 60.8243C12.0179 81.5075 21.6341 98.6879 30.4608 116.196C39.0983 133.329 44.8764 155.917 26.5023 169.179C23.857 171.089 18.1917 173.541 13.9771 175.244C12.6238 175.79 10.8826 176.283 9.8638 177.317C24.9923 177.317 36.1777 169.577 40.8759 155.094C43.2919 147.648 42.1106 138.476 40.3579 131.64C36.839 117.913 25.6766 102.83 19.8393 85.4427C18.6848 81.9987 17.7501 78.8827 16.9722 75.0328C14.2676 61.617 14.5983 42.5401 22.9051 30.6244C21.7717 31.3527 20.4605 32.2099 19.3977 32.9988C16.9053 34.8422 12.3524 39.4374 10.4391 41.9806C-3.20046 60.1131 -1.83382 78.5015 5.91681 97.7206C15.6706 121.903 26.9591 134.831 15.9401 162.086C14.9958 164.572 13.2374 168.38 12.6582 170.846Z" fill="#0D0D0D"/>
<path fill-rule="evenodd" clip-rule="evenodd" d="M24.0654 74.3065C23.6238 69.0361 24.5833 65.5295 26.7145 60.6024C28.559 56.3447 30.5086 53.2022 32.9628 49.5477C35.9962 45.034 36.8773 43.9606 40.249 39.8262C43.6608 35.6406 44.5419 34.1234 47.3039 29.568C55.2724 16.4196 47.8027 -1.52127 31.6363 0.151443C28.213 0.504192 25.0268 2.01949 23.0351 4.55701C22.2992 5.49578 21.4678 5.82387 21.3512 7.20263C23.3925 6.1311 23.2377 5.27578 26.3303 5.05769C39.4041 4.1322 42.9517 15.295 38.1235 25.0847C35.3253 30.7609 29.9543 37.0516 26.3839 42.396C24.0099 45.9405 22.8899 47.672 21.2174 51.7571C19.4742 56.009 18.8664 62.2485 20.3745 67.0372C21.1237 69.4173 22.3336 72.4953 24.0654 74.3065ZM26.0895 3.87617C27.1369 3.09481 28.3908 2.90137 29.1343 2.71172C31.9077 2.00053 36.0344 2.29069 38.6167 3.3186C41.8469 4.60632 44.2629 7.23866 45.8684 9.98669C47.4262 12.6475 48.7489 16.7894 48.6915 21.0831C48.5979 27.7721 41.9769 36.0237 37.854 41.1462C35.8757 43.6059 32.3263 47.0082 29.7785 50.3897C27.2669 53.7162 24.7554 57.1431 23.1211 61.0385C22.7389 61.9527 22.326 63.1987 22.1349 64.164C21.4124 60.4317 22.3222 55.8232 23.1747 53.0808C24.115 50.054 25.3097 47.5336 26.7317 44.9031C30.8928 37.2128 36.7741 31.3906 40.075 23.0099C41.1129 20.3795 42.1928 16.8198 41.3633 12.9187C40.01 6.54265 35.3845 4.01841 29.3197 3.57462C28.6469 3.52911 27.2593 3.53669 26.0895 3.87617Z" fill="#0D0D0D"/>
</svg>
