<svg width="197" height="146" viewBox="0 0 197 146" fill="none" xmlns="http://www.w3.org/2000/svg">
<path d="M38.5516 0.382416C37.8191 0.382416 37.1477 0.836607 36.8245 1.55245L34.2338 7.27921C33.6031 8.66893 34.5345 10.2981 35.9609 10.2981C48.5773 10.2783 61.0896 10.2981 73.6946 10.2981C75.1233 10.2981 76.0547 8.6714 75.424 7.27921L72.8333 1.55245C72.5078 0.836607 71.8387 0.382416 71.1062 0.382416C60.217 0.402163 49.434 0.382416 38.5516 0.382416ZM35.4274 13.3096C35.059 13.3096 34.704 13.47 34.4418 13.7539C34.1819 14.0378 34.0349 14.4228 34.0349 14.8252V23.8103C34.0349 24.2126 34.1819 24.5977 34.4418 24.8816C34.704 25.1654 35.059 25.3259 35.4274 25.3259H37.4235L41.0992 63.9543C41.1738 64.727 41.7729 65.312 42.4872 65.312H67.1751C67.8894 65.3144 68.4885 64.727 68.5608 63.9568L70.3037 45.7916H115.486V55.305C115.486 56.1418 116.11 56.8181 116.879 56.8181H127.46C128.229 56.8181 128.853 56.1418 128.853 55.305V45.7916H136.65V59.0125C136.65 59.4149 136.799 59.8 137.059 60.0838C137.321 60.3677 137.676 60.5282 138.044 60.5282H148.628C148.997 60.5282 149.352 60.3677 149.614 60.0838C149.876 59.8 150.021 59.4149 150.021 59.0125V45.7916H161.111C161.482 45.7916 161.837 45.6337 162.097 45.3498C162.359 45.0659 162.506 44.6784 162.506 44.2785V32.6547C162.506 32.2523 162.359 31.8672 162.097 31.5834C161.837 31.297 161.482 31.139 161.111 31.139H71.6759L72.2365 25.3259H74.2349C74.6034 25.3259 74.9583 25.1654 75.2182 24.8816C75.4805 24.5977 75.6274 24.2126 75.6274 23.8103V14.8252C75.6274 14.4228 75.4805 14.0378 75.2182 13.7539C74.9583 13.47 74.6034 13.3096 74.2349 13.3096H35.4274ZM36.8222 16.3383H72.8401V22.2947H70.9819C70.2698 22.2947 69.6708 22.8797 69.5962 23.6498L68.7417 32.4942C68.701 32.9213 68.8276 33.3483 69.0921 33.6667C69.3565 33.9876 69.7341 34.1678 70.1274 34.1678H159.721V42.7653H148.628C147.86 42.7653 147.236 43.4417 147.236 44.2785V57.4969H139.439V44.2785C139.437 43.4417 138.813 42.7653 138.044 42.7653H127.46C126.692 42.7653 126.07 43.4417 126.07 44.2785V53.7894H118.271V44.2785C118.271 43.4417 117.647 42.7653 116.879 42.7653H69.0468C68.3348 42.7653 67.7357 43.3504 67.6611 44.1205L65.9205 62.2857H43.7419L40.0662 23.6523C39.9916 22.8821 39.3925 22.2947 38.6804 22.2947H36.8222V16.3383Z" fill="black"/>
<path d="M15.0342 119.684C20.3397 119.684 24.9536 116.512 27.3973 111.827L24.8609 110.265C22.9688 113.992 19.2795 116.461 15.0342 116.461C8.80625 116.461 3.77871 111.02 3.77871 104.17C3.77871 97.3179 8.80625 91.8775 15.0342 91.8775C19.2795 91.8775 22.9688 94.3459 24.8609 98.0757L27.3973 96.5132C24.9536 91.8281 20.3397 88.6537 15.0342 88.6537C7.19219 88.6537 0.826385 95.6073 0.826385 104.17C0.826385 112.733 7.19219 119.684 15.0342 119.684Z" fill="#B86125"/>
<path d="M41.5467 119.684C46.8523 119.684 51.1429 114.999 51.1429 109.208C51.1429 103.415 46.8523 98.7299 41.5467 98.7299C36.2411 98.7299 31.9505 103.415 31.9505 109.208C31.9505 114.999 36.2411 119.684 41.5467 119.684ZM41.5467 116.562C37.8099 116.562 34.8124 113.289 34.8124 109.208C34.8124 105.128 37.8099 101.852 41.5467 101.852C45.2382 101.852 48.281 105.128 48.281 109.208C48.281 113.289 45.2382 116.562 41.5467 116.562Z" fill="#B86125"/>
<path d="M66.3991 99.1322H61.462V88.3032C61.462 86.4395 62.755 85.23 64.2312 85.23L66.3539 85.2794V82.8628C65.8453 82.5098 64.8303 82.2062 63.9079 82.2062C61.0483 82.2062 58.6024 84.7264 58.6024 87.8984V99.1322H55.5121V102.156H58.6024V119.282H61.462V102.156H66.3991V99.1322Z" fill="#B86125"/>
<path d="M80.0891 99.1322H75.152V88.3032C75.152 86.4395 76.4451 85.23 77.9212 85.23L80.0439 85.2794V82.8628C79.5353 82.5098 78.5203 82.2062 77.598 82.2062C74.7383 82.2062 72.2924 84.7264 72.2924 87.8984V99.1322H69.2021V102.156H72.2924V119.282H75.152V102.156H80.0891V99.1322Z" fill="#B86125"/>
<path d="M102.821 109.006C102.681 103.213 98.4834 98.7299 93.2253 98.7299C87.9197 98.7299 83.6291 103.415 83.6291 109.208C83.6291 114.999 87.9197 119.684 93.2253 119.684C97.6085 119.684 101.253 116.512 102.451 112.18H99.408C98.393 114.799 95.9922 116.562 93.2253 116.562C89.5812 116.562 86.6741 113.54 86.491 109.66H102.774L102.821 109.006ZM93.2253 101.852C96.1776 101.852 98.6687 103.919 99.5459 106.839H86.8595C87.7818 103.919 90.2729 101.852 93.2253 101.852Z" fill="#B86125"/>
<path d="M126.936 109.006C126.795 103.213 122.597 98.7299 117.339 98.7299C112.034 98.7299 107.743 103.415 107.743 109.208C107.743 114.999 112.034 119.684 117.339 119.684C121.723 119.684 125.367 116.512 126.565 112.18H123.522C122.507 114.799 120.106 116.562 117.339 116.562C113.695 116.562 110.788 113.54 110.605 109.66H126.888L126.936 109.006ZM117.339 101.852C120.292 101.852 122.783 103.919 123.66 106.839H110.974C111.896 103.919 114.387 101.852 117.339 101.852Z" fill="#B86125"/>
<path d="M149.663 119.282H153.768L140.621 103.01L153.26 89.0585H149.155L138.037 101.45H136.1V89.0585H133.147V119.282H136.1V104.471H138.082L149.663 119.282Z" fill="black"/>
<path d="M175.668 109.006C175.528 103.213 171.33 98.7299 166.072 98.7299C160.766 98.7299 156.476 103.415 156.476 109.208C156.476 114.999 160.766 119.684 166.072 119.684C170.455 119.684 174.099 116.512 175.297 112.18H172.255C171.24 114.799 168.839 116.562 166.072 116.562C162.428 116.562 159.521 113.54 159.338 109.66H175.621L175.668 109.006ZM166.072 101.852C169.024 101.852 171.515 103.919 172.393 106.839H159.706C160.628 103.919 163.12 101.852 166.072 101.852Z" fill="black"/>
<path d="M193.737 99.1322L188.018 115.656L182.114 99.1322H178.931L186.495 119.433L182.066 131.372H185.111L189.033 120.793L196.968 99.1322H193.737Z" fill="black"/>
<path d="M65.4337 145.79C67.1201 145.79 68.5872 144.78 69.3649 143.292L68.5578 142.793C67.9565 143.981 66.7833 144.766 65.4337 144.766C63.4534 144.766 61.8529 143.035 61.8529 140.856C61.8529 138.678 63.4534 136.948 65.4337 136.948C66.7833 136.948 67.9565 137.733 68.5578 138.918L69.3649 138.422C68.5872 136.931 67.1201 135.921 65.4337 135.921C62.9403 135.921 60.9148 138.133 60.9148 140.856C60.9148 143.578 62.9403 145.79 65.4337 145.79Z" fill="black"/>
<path d="M78.0469 145.662H79.0732L75.8903 136.05H74.8481L71.6652 145.662H72.6915L73.4104 143.418H77.328L78.0469 145.662ZM73.7201 142.443L75.3771 137.266L77.0205 142.443H73.7201Z" fill="black"/>
<path d="M86.8474 137.044V136.05H82.0346V145.662H82.975V141.352H86.3478V140.359H82.975V137.044H86.8474Z" fill="black"/>
<path d="M94.885 137.044V136.05H90.0722V145.662H94.885V144.669H91.0126V141.352H94.3854V140.359H91.0126V137.044H94.885Z" fill="black"/>
<path d="M103.523 136.05H97.713V137.076H100.15V145.662H101.088V137.076H103.523V136.05Z" fill="black"/>
<path d="M111.429 137.044V136.05H106.617V145.662H111.429V144.669H107.557V141.352H110.93V140.359H107.557V137.044H111.429Z" fill="black"/>
<path d="M118.763 141.273C119.92 141.095 120.802 140.039 120.802 138.74C120.802 137.234 119.701 136.05 118.351 136.05H115.198V145.662H116.136V141.32H117.793L120.289 145.662H121.358L118.763 141.273ZM116.136 140.342V137.076H118.293C119.172 137.076 119.861 137.748 119.861 138.71C119.861 139.686 119.188 140.342 118.293 140.342H116.136Z" fill="black"/>
<path d="M124.452 145.662H125.392V136.05H124.452V145.662Z" fill="black"/>
<path d="M134.721 145.662H135.747L132.564 136.05H131.522L128.339 145.662H129.365L130.084 143.418H134.002L134.721 145.662ZM130.394 142.443L132.051 137.266L133.694 142.443H130.394Z" fill="black"/>
</svg>
