<svg width="358" height="283" viewBox="0 0 358 283" fill="none" xmlns="http://www.w3.org/2000/svg">
<g clip-path="url(#clip0_134_107)">
<path fill-rule="evenodd" clip-rule="evenodd" d="M171.686 86.3906C178.253 86.2344 184.696 85.6328 191.132 85.4648C195.096 85.3594 205.515 84.082 209.572 83.4883C231.639 80.2539 252.723 75.2344 272.618 64.8594C279.233 61.4062 285.389 57.3281 290.643 51.8437C294.042 48.2969 293.926 47.9258 292.804 45.5547C290.388 40.457 287.677 37.5039 283.549 33.9883C278.28 29.4961 270.303 25.3437 264.294 22.2539C254.058 16.9883 238.618 12.2266 227.623 9.94531C218.936 8.14453 210.372 7.11718 201.289 6.11718C181.559 3.95312 165.052 3.51953 145.124 4.68359C132.054 6.23046 123.483 8.05859 111.348 11.4102C97.2388 15.3086 87.4411 18.7891 74.3676 25.1758C67.7261 28.6445 54.7534 35.9531 49.7424 41.2305C47.192 43.918 45.928 45.0742 45.928 48.7852C45.928 51.2422 53.3661 57.3867 55.2732 58.875C58.6987 61.5469 63.2722 64.0469 67.1464 66.0898L73.7019 69.168C86.2333 74.9844 104.153 80.1445 117.728 82.5C137.667 85.9609 151.152 86.3906 171.686 86.3906ZM44.3836 51.5547C45.3222 63.2422 46.0589 74.0391 48.4859 85.5625C49.5779 90.7383 50.6997 95.793 52.2554 100.777C55.3854 110.805 58.0443 119.117 61.8736 128.805C62.7524 131.023 63.7658 133.332 64.7119 135.531C67.5092 142.031 70.6579 148.289 73.9225 154.523C75.0295 156.641 76.1027 158.461 77.2732 160.484C80.6538 166.34 84.427 172.113 88.3312 177.547C89.6811 179.422 90.9638 181.172 92.3923 182.996L97.6801 189.477C100.002 192.504 102.699 195.355 105.328 198.102C107.609 200.484 109.905 202.863 112.388 205.031L114.718 207.215C116.782 209.133 118.82 211.117 121.038 212.848C122.316 213.848 124.34 214.219 125.85 214.742C132.881 217.184 140.401 219.066 147.843 220.391C157.424 222.094 167.229 222.996 177.21 222.496C178.399 222.437 180 222.219 181.189 222.156C194.251 221.512 211.648 217.945 223.528 212.711L224.186 212.473C226.834 211.359 237.597 200.363 239.407 197.91L247.907 187.863C250.592 184.313 253.138 180.734 255.734 177.117L260.348 170.164C262.839 166.426 265.408 161.598 267.663 157.488C270.92 151.559 274.82 143.508 276.855 137.801L279.472 131.074C281.574 125.426 283.623 119.805 285.426 113.988C287.045 108.371 288.41 102.828 289.951 97.2539C290.852 93.9844 291.578 90.5508 292.176 87.1523C294.094 76.3047 296.087 61.4258 294.569 50.6797C290.216 57.1797 282.172 63.6992 274.458 67.7031L267.461 71.2422C260.083 75.125 248.247 78.8867 240.644 80.8516C227.668 84.207 215.081 86.4687 201.805 88.3828C195.22 89.3281 181.873 90.1016 175.602 90.0937C161.739 90.0742 152.211 89.4531 138.307 88.4726C118.45 87.0703 92.2465 80.8594 73.9375 72.6133C65.0111 68.3437 56.2568 64.2812 49.1889 56.918C47.6595 55.3242 46.3955 53.7344 44.3836 51.5547ZM283.298 139.91L280.516 142.543C279.607 143.277 278.762 144.297 277.939 145.156C277.558 145.555 276.892 146.16 276.638 146.57C276.324 147.07 271.941 156.656 270.52 159.105C269.851 160.262 269.334 161.32 268.669 162.473C267.607 164.309 267.109 164.691 267.502 166.211C269.72 174.777 277.453 178.398 283.448 165.906C284.053 164.641 284.427 163.477 284.872 162.082C285.258 160.875 286.006 159.074 286.256 157.953C284.644 158.91 283.526 160.207 282.105 161.676C281.193 162.754 280.31 163.84 279.379 164.891C278.889 165.441 278.9 165.57 278.433 165.746C279.3 164.035 279.689 162.871 280.733 161.227L282.509 158.465C284.566 155.629 285.127 155.008 288.305 153.211C292.075 151.078 296.02 148.715 300.119 147.32L318.884 139.68C321.763 138.184 324.557 136.996 327.489 135.473C332.881 132.555 338.621 128.309 342.698 123.707L344.71 121.191C347.163 118.02 347.148 117.965 349.171 114.312C352.69 107.953 352.787 106.562 354.328 99.6289C356.422 90.207 354.993 81.5234 350.999 73.1641C350.431 71.9648 350.106 71.4531 349.474 70.3711C345.113 62.9101 337.739 57.4609 329.572 54.9297C322.227 52.6562 314.34 52.2773 306.97 55.3711C304.868 56.25 299.371 60.1602 297.991 61.7617C298.021 67.1484 296.944 75.8711 296.54 80.6055L295.231 88.2344L299.528 82.7969C302 79.5117 305.16 75.3125 307.991 72.2539L312.471 67.2422C312.272 68.0195 312.343 67.6328 311.91 68.2695L307.43 74.8984C304.782 79.0391 304.857 78.7187 302.243 82.4023C301.319 83.6953 300.485 84.7461 299.528 86.0273C298.619 87.2383 294.42 92.0625 294.132 93.3164L293.021 98.3828C294.162 100.16 296.379 101.559 299.438 101.391C300.956 101.309 301.865 100.715 302.755 100.008C303.716 99.2383 304.187 98.4219 304.741 97.2383C307.011 92.4141 304.92 76.8008 318.891 73.7148C322.208 72.9805 324.254 73.7344 326.543 74.9258C327.65 75.5039 331.131 78.1211 331.7 79.0039C330.817 78.7617 329.194 77.1367 326.838 76.9297C327.627 77.6445 329.77 79.1055 330.151 79.6992C329.441 79.5 328.487 78.5859 326.617 78.5469C326.879 78.9219 327.848 79.7187 328.326 80.2187C328.947 80.875 329.516 81.1328 329.931 81.7734C329.007 81.5195 329.183 81.0156 326.172 80.1601C324.901 79.8008 323.581 79.0391 322.193 79.0039C322.882 79.9844 323.85 80.1055 325.866 83.2461C326.917 84.8828 327.586 86.6289 328.192 88.6641C329.351 92.5586 329.56 98.1289 328.517 102.449C324.718 118.23 306.663 122.84 294.659 130.316C288.765 133.992 288.492 134 283.141 138.129C280.882 139.871 278.317 141.855 277.771 144.293C278.624 143.699 279.566 142.617 280.422 141.984C280.983 141.566 281.238 141.41 281.817 140.902C282.285 140.5 282.722 140.07 283.298 139.91ZM280.867 136.68L283.799 134.203C286.581 132.047 290.538 129.555 293.537 127.988C298.548 125.379 303.548 122.371 308.929 119.605C309.546 119.289 310.096 119.105 310.78 118.766C315.294 116.527 322.22 110.305 324.404 105.77C327.418 99.5234 326.984 90.6797 323.514 84.7812C322.152 82.4687 319.112 79.6992 315.563 79.6992C313.656 79.6992 313.574 79.5039 312.714 80.6406C312.295 81.1914 312.085 81.4453 311.67 82.0937C307.83 88.1172 310.118 95.3789 305.653 101.191C304.531 102.656 301.689 104.383 299.21 104.383C294.087 104.383 293.253 101.781 292.359 101.152C289.883 112.258 285.359 123.992 281.623 134.703C281.324 135.453 281.017 136 280.867 136.68ZM265.943 167.094C263.37 170.684 260.517 175.918 257.947 179.836C253.886 186.102 249.5 191.422 244.709 197.027C243.857 198.176 244.204 198.035 245.712 198.051C249.432 198.094 255.053 199.746 258.464 201.426C261.025 202.684 264.17 205.531 265.778 207.797C266.264 208.48 266.691 209.109 267.091 209.883C269.839 215.215 266.313 219.719 262.457 223.121C260.042 225.254 257.143 227.035 254.253 228.398C252.009 229.457 249.459 230.523 247.133 231.348C241.359 233.395 234.863 235.477 228.868 236.508C220.129 238.008 212.235 239.086 203.335 239.926C182.584 241.887 157.211 241.605 136.658 239.055C125.375 237.656 116.711 235.738 105.799 232.676C100.118 231.082 93.2113 228.02 88.5555 224.141C82.5722 219.16 80.9829 213.152 85.7097 206.809C88.4471 203.133 92.3811 200.688 96.5695 199.227C98.529 198.543 99.4676 198.391 100.163 198.152C99.9351 197.824 99.621 197.426 99.262 197.066L92.1156 188.547L79.3001 170.133C77.808 167.93 76.3121 165.598 75.1043 163.211C73.6832 163.555 72.6174 163.684 70.9944 163.996C62.4532 165.645 53.5792 168.328 45.2886 171.078C39.3015 173.066 31.5344 176.523 25.9474 179.652L22.5519 181.738C16.3666 185.531 11.7595 189.27 7.27943 195.266C5.18527 198.066 3.67447 201.223 3.58846 205.223C3.45384 211.457 7.99369 217.711 11.9502 220.891C16.4115 224.48 19.6238 226.566 24.6423 229.492C33.3855 234.594 43.0298 238.141 52.5321 241.441C57.2365 243.078 62.1952 244.383 66.8996 245.824C73.0811 247.723 83.1331 249.941 89.5241 251.273C94.7894 252.375 99.7481 253.48 105.096 254.402C107.624 254.836 110.514 255.336 113.128 255.707C145.521 260.262 170.366 260.602 202.003 256.68C206.345 256.141 210.634 255.156 214.965 254.523C219.396 253.875 223.641 252.883 228.057 252.27C234.579 251.367 240.783 249.867 247.241 248.766L253.445 247.395C261.713 245.676 269.772 243.5 277.947 241.367L289.566 237.805C293.481 236.453 297.041 235.238 300.953 233.77C311.659 229.754 324.579 224.02 333.315 216.34C335.914 214.055 338.876 211.371 340.637 208.293C344.246 201.988 344.493 196.566 340.454 190.289C335.858 183.152 328.263 177.863 321.161 173.75C312.845 168.926 301.431 164.234 291.783 161.73C290.691 161.449 288.156 160.883 287.273 160.441C285.819 163.617 285.65 167.02 283.59 170.898C280.751 176.238 275.606 177.797 271.735 176.309C268.254 174.965 265.943 170.871 265.943 167.094ZM228.82 213.109C230.121 213.625 231.991 213.855 233.666 214.551C235.125 215.16 236.49 215.93 237.679 216.824C241.572 219.766 244.836 224.645 240.588 229.137C239.949 229.816 239.691 230.055 238.939 230.641C238.315 231.125 236.437 232.105 236.273 232.258C237.72 232.258 240.383 231.18 241.568 230.848C245.371 229.77 249.963 228.414 253.449 226.41C254.653 225.719 255.805 225.145 257.069 224.418C263.46 220.734 267.809 214.926 261.257 208.363C259.855 206.961 257.652 205.75 255.704 204.93C253.778 204.117 250.883 203.328 248.572 202.918C246.792 202.605 241.546 201.758 240.33 201.879C237.6 204.848 233.868 208.73 230.847 211.363C230.424 211.766 229.59 212.578 228.82 213.109ZM232.29 215.379C231.557 214.848 230.289 214.418 229.399 214.031C228.364 213.582 228.121 213.617 227.601 214.422C228.397 214.441 229.063 214.648 229.8 214.777C230.147 214.84 231.696 215.27 232.29 215.379ZM106.98 229.629C106.034 228.152 104.43 226.18 105.197 223.691C106.7 218.824 114.482 215.809 119.747 215.809L115.133 212.082C110.84 208.625 106.771 203.406 102.729 200.582C96.8537 202.23 94.0639 203.691 91.1471 206.32C88.2264 208.957 85.8518 212.633 87.2803 216.707C88.5854 220.434 92.3886 222.91 95.5037 224.734C97.7213 226.035 105.152 229.586 106.98 229.629ZM129.216 219.219C130.301 220.203 133.105 221.379 134.582 222.008C146.785 227.172 159.118 229.418 173.01 229.418C176.477 229.418 180.501 229.543 183.747 229.117C187.8 228.59 192.68 227.715 196.644 226.863C200.115 226.121 212.066 222.539 217.265 218.746C213.921 219.656 208.944 221.398 205.556 222.098C202.22 222.781 199.21 223.934 195.646 224.672C190.799 225.672 184.367 226.637 179.207 226.797C174.742 226.938 168.613 226.875 164.106 226.258C155.344 225.059 148.845 224.078 140.102 222.246L129.216 219.219ZM120.63 216.5C117.799 216.5 110.451 219.66 108.185 222C105.645 224.617 106.393 227.523 110.077 230.285C110.989 230.969 113.211 231.461 114.576 231.816C120.222 233.285 128.528 234.738 136.785 235.805C158.632 238.629 180.714 238.316 202.632 236.719L215.159 235.809C224.575 234.508 230.002 234.969 236.931 230.16C244.249 225.078 239.68 218.695 232.821 216.355C225.32 213.797 228.39 214.047 222.803 218.414C221.27 219.613 212.167 225.012 209.92 226.188C200.522 231.109 188.791 232.047 178.029 232.73C168.429 233.34 161.952 232.422 152.734 230.746C144.346 228.691 133.479 225.746 126.553 220.902C125.503 220.16 121.165 216.5 120.63 216.5ZM65.8899 249.289C66.6117 250.316 76.0765 256.004 77.7519 256.871C101.551 269.191 114.886 273.125 140.618 276.84C141.975 277.035 143.03 277.062 144.41 277.266C146.796 277.613 149.773 278.059 152.237 278.094L168.59 279.02C174.237 278.988 180.168 279.41 185.796 278.754C207.153 276.25 222.246 275.18 243.483 266.988C245.405 266.242 247.66 265.324 249.627 264.406L261.272 258.566C265.112 256.531 280.198 246.371 281.75 243.953C276.331 245.48 271.133 246.828 265.67 248.164C259.312 249.586 252.312 250.73 246.104 252.305C251.029 252.242 254.668 251.754 259.555 251.004C261.59 250.691 265.019 250.23 266.949 249.727C267.693 249.531 268.265 249.277 269.151 249.258C262.11 251.988 257.256 253.938 249.668 256.188C250.842 256.188 263.172 253.383 264.877 252.871L268.931 251.566C268.209 252.219 267.569 252.277 266.657 252.648L259.963 255.586C255.505 257.531 250.532 259.484 245.857 260.699C236.957 263.016 228.135 264.574 219.074 265.969C195.265 269.629 159.918 270.539 136.407 268.172C129.53 267.48 121.535 266.395 117.851 265.539C116.083 265.129 114.527 264.812 112.762 264.391L106.199 262.656C99.1049 260.773 84.0419 256.801 65.8899 249.289ZM161.085 282.008C151.242 281.703 142.017 280.695 132.537 279.051C124.938 277.73 117.302 276.141 109.976 273.992C103.088 271.973 96.4124 269.336 89.8756 266.598C82.6844 263.578 75.8484 259.754 69.2032 255.645C65.1308 253.125 61.2603 250.336 57.5507 247.277C56.7653 246.633 56.096 246.152 55.1648 245.844C45.483 242.672 35.9172 239.328 26.8487 234.57C18.5655 230.223 10.0018 225.328 4.3476 217.453C-0.0239748 211.375 -1.00375 205.145 1.75607 198.074C2.5713 195.984 3.50619 194.937 4.59815 193.199C6.21739 190.621 8.16197 189.07 10.1851 187.035C13.4385 183.75 17.3688 181.16 21.2468 178.738C25.4388 176.121 29.4776 174.18 33.8454 172.051C38.0225 170.016 43.3888 168.285 47.7829 166.758C53.6951 164.707 59.6673 163.199 65.7291 161.73C74.9547 159.742 74.1394 161.711 71.1366 156.277L65.8189 145.906C60.6021 135.016 56.2007 124.195 52.4237 112.371C48.1493 98.9922 43.157 80.7187 42.1361 65.4375C41.7659 59.8789 42.2707 54.5391 42.5886 48.9883C43.8413 42.6875 46.6797 39.3477 51.3616 35.9258C57.6404 31.3359 66.5219 26.5156 73.1148 22.7148C77.8678 20.2383 82.6208 18.207 87.5122 16.0742C106.304 8.51171 122.122 5.24999 142.136 2.48437C169.604 -1.30079 205.066 1.34765 232.174 7.80078C235.903 8.68749 239.609 9.74218 243.251 10.7695L247.589 12.2383C254.608 14.3086 266.219 19.3086 272.236 22.9609C276.455 25.5195 280.886 27.9492 284.693 31.1797C286.118 32.4726 288.032 33.9883 289.326 35.3437C292.696 38.8594 296.951 46.1094 297.314 51.0469C297.464 53.0937 297.654 54.4141 297.882 56.6289C299.337 55.6133 300.018 54.8437 301.768 53.7617C303.196 52.875 304.67 52.2422 306.364 51.6406C314.49 48.7305 324.852 48.6562 332.934 51.8828C339.19 54.3789 346.493 59.8203 351.269 67.1758C356.269 74.8828 358 83.0156 358 92.3867C358 104.285 352.424 117.703 344.463 126.012C338.337 132.395 330.761 137.156 322.452 141.02C314.228 144.848 305.665 147.805 297.389 151.43C294.506 152.785 289.498 154.477 288.601 157.441C290.744 157.492 298.425 160.211 300.668 160.992C308.492 163.707 316.969 167.031 324.033 171.441C330.679 175.59 335.925 179.152 341.153 185.406C346.003 191.207 348.303 198.992 345.435 206.383C343.348 211.781 339.627 215.078 335.731 218.867C330.26 224.18 321.861 228.156 315.047 231.648C305.279 236.41 298.664 238.273 289.278 241.66C288.126 242.078 288.795 241.68 288.085 242.488C282.674 248.672 273.818 254.777 266.874 259.105C262.697 261.707 258.639 263.973 254.058 266.031C242.649 271.16 230.925 275.582 218.48 277.801C197.486 281.547 182.135 282.652 161.085 282.008Z" fill="#0D0D0D"/>
<path fill-rule="evenodd" clip-rule="evenodd" d="M216.55 13.9492C226.849 16.3164 237.769 19.1367 246.938 22.5859C255.592 25.8399 274.828 34.5234 269.675 45.4102C267.588 49.8242 262.835 53.7188 258.987 56.3984C257.473 57.4531 255.969 58.4844 254.38 59.3984C255.707 55.7539 254.93 52.8516 251.254 49.9336C244.089 44.25 229.878 41.6016 220.57 40.4375C211.524 39.3125 201.996 38.1484 192.901 38.1758C174.009 38.2305 157.7 37.9024 138.793 40.0586C136.935 40.2734 134.788 40.6758 132.967 40.9024C129.167 41.3672 125.615 42.4492 121.939 43.2305C115.963 44.5039 86.596 52.6211 86.596 61.7031L83.2079 59.9336C81.9589 59.2344 81.0652 58.7227 79.9545 58.0274C70.8748 52.3555 61.3202 44.0859 73.4925 34.6484C77.4752 31.5586 82.0786 28.8047 86.8802 26.6016C89.1726 25.5469 91.622 24.6875 93.862 23.8438C97.3174 22.5469 100.705 21.2813 104.194 20.2344C108.521 18.9375 112.889 17.5547 117.234 16.3594C123.266 14.6992 129.751 13.2344 135.626 12.2734C141.037 11.3867 146.5 10.8008 151.893 9.89844C154.63 9.44141 158.209 8.94532 161.077 8.64454C161.077 8.09376 154.705 8.85547 153.793 8.88282C143.382 9.20704 133.191 10.9258 123.083 13.0508L113.472 15.2422C108.334 16.4688 103.349 17.8711 98.3907 19.5742C97.2725 19.9531 96.4835 20.2852 95.4663 20.6719L89.6886 22.7149C84.2513 24.9688 78.9112 27.2891 73.9562 30.5156C69.6744 33.3047 63.5153 39.0156 64.5773 45.0078C65.2692 48.918 66.664 50.1914 68.6011 52.8047C70.527 55.4063 74.5882 58.2774 77.2433 59.9297C81.3942 62.5156 85.6836 64.8359 90.1598 66.75C92.1119 67.582 93.9331 68.1875 95.945 69.0195C106.464 73.3633 122.133 76.9805 133.431 78.332L161.051 80.5938C167.969 81.1641 174.454 81.1641 181.316 81.3711C183.702 81.4414 186.42 81.4414 188.773 81.3086C195.141 80.9375 199.954 80.336 206.255 79.4414C215.47 78.1328 222.952 76.4766 231.471 73.3164L234.784 72.0899C240.891 69.8242 245.08 68.1367 250.876 64.9609C255.139 62.625 259.215 60.1914 262.513 57.6133C266.758 54.2969 271.593 49.6992 272.726 44.0508C274.05 37.4531 269.278 31.9649 264.383 28.8477C252.716 21.4219 236.95 16.9883 223.562 14.9414C222.283 14.7461 221.273 14.6406 220.107 14.3906C219.374 14.2305 217.399 13.9492 216.55 13.9492ZM148.015 41C151.22 41.5039 154.331 41.7774 157.499 42.6016C160.139 43.2852 162.442 44.0078 164.899 45.0274C172.363 48.1328 181.05 55.2578 169.918 61.0156C164.716 63.7031 160.632 64.8516 154.372 68.0859C144.283 73.2969 150.513 77.5156 151.844 77.8008C153.95 78.2539 167.939 78.7735 170.138 78.7735C173.25 78.8516 176.324 79.0195 179.274 78.9883C184.427 78.9336 191.091 78.582 196.054 77.832C195.377 77 194.625 77.3906 193.32 77.3985C189.363 77.4258 185.1 77.4063 182.344 74.5703C180.385 72.5547 180.527 72.125 180.527 69.7774C180.527 62.0195 199.535 57.3516 199.535 49.4766C199.535 44.4258 187.666 40.1953 185.609 40.0234L173.627 39.75C164.791 39.7695 156.739 39.9844 148.015 41ZM206.827 46.0156C208.405 46.0156 211.169 47.1524 211.169 49.2774C211.169 51.6602 209.583 52.5781 207.269 52.0156C207.299 50.6758 207.646 50.1953 206.775 49.0703C206.244 48.3867 205.485 47.6445 204.617 47.4024C204.83 46.4375 205.275 46.0156 206.827 46.0156ZM215.888 47.4024C216.124 46.0117 220.391 45.0469 221 47.4531C221.27 48.5078 219.841 49.4375 217.736 49.1055C215.926 48.8242 215.873 47.4805 215.888 47.4024ZM120.189 61.0117C117.515 61.0117 118.349 58.4727 121.516 58.4727C122.474 58.4727 122.844 58.8672 123.285 59.3984C123.083 60.3008 123.147 60.3438 122.279 60.6563C121.673 60.875 120.907 61.0117 120.189 61.0117ZM102.067 62.3984C102.067 59.7422 110.245 59.2383 110.245 61.4727C110.245 64.5508 102.067 65.1367 102.067 62.3984ZM198.208 72.5469C198.208 71.2461 203.069 69.9922 203.069 72.7774C203.069 74.4219 198.208 74.461 198.208 72.5469Z" fill="#0D0D0D"/>
<path fill-rule="evenodd" clip-rule="evenodd" d="M271.365 89.3867C271.982 89.2149 275.815 85.9063 276.395 85.4102C279.08 83.1289 282.89 78.9453 284.891 75.8242L288.38 70.2422L284.24 75.1484C282.741 76.7734 281.454 78.2774 279.929 79.8711L273.508 87.0117C272.79 87.9063 271.96 88.457 271.365 89.3867Z" fill="#0D0D0D"/>
<path fill-rule="evenodd" clip-rule="evenodd" d="M112.235 200.813C112.923 201.887 120.667 206.973 121.527 207.492C123.771 208.852 129.949 211.887 133.229 211.887C132.593 211.309 129.205 210.012 127.922 209.352L112.235 200.813Z" fill="#0D0D0D"/>
<path fill-rule="evenodd" clip-rule="evenodd" d="M106.266 194.352C106.73 195.078 107.642 195.688 108.383 196.293C111.494 198.848 111.042 199.066 115.589 201.922C118.401 203.691 124.029 206.484 127.26 207.27C126.864 206.703 122.668 204.793 121.916 204.316L116.64 201.055C114.856 199.949 113.308 198.832 111.475 197.684C110.615 197.133 106.943 194.543 106.266 194.352Z" fill="#0D0D0D"/>
<path fill-rule="evenodd" clip-rule="evenodd" d="M236.441 196.66C235.704 196.863 235.151 197.582 234.022 198.289C228.255 201.906 227.249 202.715 220.825 205.965C217.975 207.41 215.87 207.57 214.991 207.949C214.669 208.082 214.733 208.07 214.565 208.191C218.45 208.191 223.756 205.801 227.014 204.121C229.25 202.965 235.488 198.145 236.441 196.66Z" fill="#0D0D0D"/>
<path fill-rule="evenodd" clip-rule="evenodd" d="M70.684 95.3867C70.138 94.5352 69.3527 94.1211 68.6347 93.3711C67.9205 92.6211 67.3708 92.0273 66.6528 91.2852C66.1703 90.7852 66.0582 90.7539 65.5683 90.3438L55.1573 80.4453C54.6375 79.8672 54.5926 79.7383 54.1064 79.4688C55.6883 82.5859 61.2266 88.1328 63.7359 90.1797L69.3378 94.5039C69.966 95.0273 69.9286 95.1758 70.684 95.3867Z" fill="#0D0D0D"/>
<path fill-rule="evenodd" clip-rule="evenodd" d="M272.91 94C273.796 93.7539 274.073 93.0508 274.768 92.4805C275.516 91.875 276.013 91.4531 276.739 90.8437C279.237 88.7461 285.62 82.2305 286.391 78.7734C285.725 79.2422 285.276 79.8281 284.678 80.4492L274.622 92.0976C273.99 92.7539 273.384 93.2656 272.91 94Z" fill="#0D0D0D"/>
<path fill-rule="evenodd" clip-rule="evenodd" d="M221.857 200.352C224.104 200.156 229.321 197.633 231.045 196.563C232.458 195.691 237.686 192.055 238.434 190.891L222.369 199.965C221.954 200.254 222.19 200.051 221.857 200.352Z" fill="#0D0D0D"/>
<path fill-rule="evenodd" clip-rule="evenodd" d="M68.4739 99.3047C67.9242 98.4531 58.2013 88.9492 56.8139 87.4844C56.0623 86.6875 55.8491 86.5273 54.989 85.9258C55.262 86.9883 57.143 88.75 57.8311 89.6523C58.8595 91 67.4456 99.0195 68.4739 99.3047Z" fill="#0D0D0D"/>
<path fill-rule="evenodd" clip-rule="evenodd" d="M332.141 125.375C331.023 126.156 330.937 127.09 329.175 128.508C327.096 130.184 325.604 131.879 322.541 134.273C321.427 135.148 319.781 136.082 319.101 137.141C320.193 136.875 322.051 135.629 322.994 134.977C324.725 133.77 328.267 130.727 329.489 129.07C330.204 128.105 331.943 126.145 332.141 125.375Z" fill="#0D0D0D"/>
<path fill-rule="evenodd" clip-rule="evenodd" d="M250.147 173.359C248.703 173.711 243.468 176.695 241.897 177.668C240.992 178.227 240.068 178.762 239.537 179.59C241.265 179.441 246.142 176.906 247.869 175.367C248.359 174.926 248.378 174.848 248.943 174.41C249.447 174.023 249.84 173.797 250.147 173.359Z" fill="#0D0D0D"/>
<path fill-rule="evenodd" clip-rule="evenodd" d="M328.828 130.91C331.434 130.184 338.752 121.688 338.992 118.684C336.811 121.305 333.846 126.621 330.346 129.496C329.815 129.934 329.164 130.387 328.828 130.91Z" fill="#0D0D0D"/>
<path fill-rule="evenodd" clip-rule="evenodd" d="M343.853 113.148L343.113 114.453C342.066 116.684 339.594 121.309 338.057 123.016C337.597 123.523 337.369 123.656 337.002 124.223C337.989 123.945 338.58 122.922 339.272 122.207C341.198 120.215 343.726 114.746 343.853 113.148Z" fill="#0D0D0D"/>
<path fill-rule="evenodd" clip-rule="evenodd" d="M284.846 139.449C285.478 139.004 285.912 138.762 286.451 138.125C286.892 137.602 287.557 136.852 287.718 136.219C287.131 136.629 286.753 137.109 286.226 137.66C285.665 138.242 285.063 138.59 284.846 139.449Z" fill="#0D0D0D"/>
<path fill-rule="evenodd" clip-rule="evenodd" d="M288.601 136.68C289.222 136.246 290.403 134.875 290.59 134.141C289.872 134.645 288.825 135.801 288.601 136.68Z" fill="#0D0D0D"/>
</g>
<defs>
<clipPath id="clip0_134_107">
<rect width="358" height="283" fill="white"/>
</clipPath>
</defs>
</svg>
